<?xml version="1.0" encoding="UTF-8" standalone="no"?>
<!-- Created with Inkscape (http://www.inkscape.org/) -->

<svg
   width="793.70081"
   height="1122.5197"
   viewBox="0 0 210 297"
   version="1.1"
   id="svg1855"
   xmlns="http://www.w3.org/2000/svg"
   xmlns:svg="http://www.w3.org/2000/svg">
  <defs
     id="defs1852" />
  <g
     id="layer1">
    <path
       id="path1828"
       style="fill:none;stroke:#000000;stroke-width:0.841375;stroke-linejoin:round;stroke-miterlimit:4;stroke-dasharray:none;stop-color:#000000"
       d="M 0.69232742,-14.552083 H 0.4198337 c 2.1316887,0.34607 4.2633164,-0.30257 6.3952271,0 1.9522997,0.16179 3.9036042,-0.27401 5.8553992,0 1.174053,0.16482 1.47961,-0.0844 2.645258,0 1.913594,0.16538 3.827264,0.2218 5.740615,0 0.835011,-0.1145 1.670006,0.0488 2.505232,0 0.475837,0.0465 0.951005,0.0891 1.426398,0 0.07158,-0.01 0.143156,0.01 0.214733,0 h 0.264669 -0.215842 c -0.479696,0.076 -0.958952,0.0116 -1.439023,0 -0.847467,0.0586 -1.694511,-0.20647 -2.541249,0 -1.935353,0.37595 -3.871676,0.1178 -5.808145,0 -0.980899,-0.0567 -1.673612,0.11835 -2.657506,0 -1.953976,-0.23499 -3.9072943,0.16741 -5.8615691,0 -2.0849753,-0.33527 -4.1716963,0.91046 -6.25170348,0 z" />
    <path
       id="path1830"
       style="fill:none;stroke:#000000;stroke-width:0.999996;stroke-linejoin:round;stroke-miterlimit:4;stroke-dasharray:none;stop-color:#000000"
       d="m 1.634475,12.145064 -0.101741,0.0681 c 0.909276,-0.34178 1.492747,-1.231821 2.387861,-1.597641 0.781941,-0.39855 1.367794,-1.1262096 2.18629,-1.4627796 0.492358,-0.20243 0.524823,-0.41614 0.987703,-0.66083 0.768659,-0.3869 1.501668,-0.83386 2.143436,-1.4341 0.274278,-0.27169 0.639532,-0.39029 0.935407,-0.62584 0.192897,-0.0932 0.384265,-0.18849 0.532592,-0.35635 0.02339,-0.0235 0.05677,-0.0302 0.08016,-0.0537 l 0.09883,-0.0661 -0.08059,0.054 c -0.154217,0.16172 -0.354259,0.24596 -0.537304,0.35949 -0.29723,0.24401 -0.700319,0.30952 -0.948849,0.63486 -0.599503,0.69068 -1.407038,1.03212 -2.168662,1.45096 -0.384812,0.21379 -0.586134,0.48332 -0.992254,0.66389 -0.806545,0.35862 -1.404084,1.0683696 -2.188604,1.4643096 -0.888292,0.3361 -1.259454,1.543961 -2.334266,1.561791 z" />
    <path
       id="path1832"
       style="fill:none;stroke:#000000;stroke-width:0.999996;stroke-linejoin:round;stroke-miterlimit:4;stroke-dasharray:none;stop-color:#000000"
       d="m 1.1460737,1.5089867 -0.107444,-0.0501 c 0.766559,0.61896 1.745708,0.58508 2.521666,1.17552 0.73522,0.46503 1.597766,0.5377 2.30881,1.07628 0.4277,0.32399 0.601457,0.21659 1.043039,0.48623 0.719196,0.46027 1.461707,0.84905 2.263548,1.05519 0.353712,0.0783 0.648059,0.33899 0.9878313,0.46049 0.177676,0.11799 0.355949,0.23326 0.562428,0.26218 0.03039,0.006 0.05429,0.0329 0.08468,0.0394 l 0.104345,0.0487 -0.08511,-0.0396 c -0.205395,-0.0383 -0.380612,-0.16865 -0.567422,-0.2645 -0.3466783,-0.11732 -0.6240293,-0.44698 -1.0020283,-0.46711 -0.843458,-0.10901 -1.551796,-0.63435 -2.290174,-1.0676 -0.374653,-0.21751 -0.685203,-0.22996 -1.047871,-0.48848 -0.720238,-0.51339 -1.576441,-0.60834 -2.311243,-1.07743 -0.750466,-0.60325 -1.839493,-0.16929 -2.465066,-1.14912 z" />
  </g>
</svg>
